<svg width="55" height="97" viewBox="0 0 55 97" fill="none" xmlns="http://www.w3.org/2000/svg">
<path d="M26.9092 1.81836L18.0283 47.2119L17.5576 49.6152L19.9121 48.9424L29.8037 46.1152L32 47.3701V52.2568L28.7969 61.8652L16.9434 66.6074L16.1309 66.9326L16.0137 67.7988L13.5527 86.0078L11.8887 88.9199L2.26758 94.7764L1.57715 92.9355L9.94336 63.4092L9.97656 63.292L9.99023 63.1719L16.46 6.93359L18.4277 3H22.7197L22.9307 2.93652L26.8672 1.75488L26.9092 1.81836ZM40.9727 7.02246L40.0234 26.4668L38.8916 27.9766L28.8105 36.8467L28.0107 23.6436C28.0462 23.5053 28.0986 23.3066 28.1641 23.0596C28.2981 22.5536 28.4895 21.8472 28.7197 21.0488C29.1847 19.4367 29.7905 17.5047 30.3848 16.0762C31.2905 13.8989 32.8563 11.2392 34.2334 9.07812C34.9153 8.00808 35.5386 7.07899 35.9912 6.41797C36.1801 6.14215 36.3393 5.91366 36.46 5.74121L39.043 4.77246L40.9727 7.02246ZM50.4844 4C50.5133 4.00029 50.6597 4.01762 50.9355 4.23438C51.2044 4.44565 51.488 4.76293 51.7607 5.13867C52.0276 5.50632 52.2496 5.88206 52.4062 6.1709C52.447 6.246 52.4814 6.31485 52.5117 6.37402L52.9688 20.1055L44.7021 24.4189L45.9561 8.1123L48.9922 4.64258C49.0054 4.63425 49.0194 4.62542 49.0342 4.61621C49.1601 4.53796 49.3364 4.43471 49.5361 4.33301C50.0019 4.09582 50.3474 3.99885 50.4844 4Z" fill="black" stroke="white" stroke-width="3"/>
</svg>
