<svg width="46" height="103" viewBox="0 0 46 103" fill="none" xmlns="http://www.w3.org/2000/svg">
<path d="M14.5215 31.9404L14.5098 32.0117L14.5039 32.085L13.0039 52.585L13 52.6396V64.6152L14.8643 64.1494L20.6572 62.7002L28.3232 62.9766L30 64.7832V76.4434L24.8545 80.3018L14.168 82.7314L13 82.9971V98.0732L9.87891 101.194H3.08105L1.5 96.4512V92.8037L4.48438 72.4111L4.49512 72.3369L4.49805 72.2607L5.49805 49.7607L5.5 49.7275V34.8203L9.94434 9.13672L11.6113 5.38574L19.583 2.4873L14.5215 31.9404ZM44.3135 43.8701L43.7373 45.3105L32.2783 55.542L31.5146 44.8584C31.554 44.728 31.6105 44.5476 31.6836 44.3291C31.8455 43.8449 32.0862 43.1838 32.4004 42.4746C32.4162 42.439 32.4332 42.4037 32.4492 42.3682C33.7249 41.1482 35.5213 39.8809 37.1162 38.8604C37.7515 38.4539 38.342 38.0974 38.833 37.8066C39.3592 37.7514 39.835 37.7231 40.2061 37.709L44.3135 43.8701ZM32.835 1.65625C33.5704 1.48757 34.644 1.47502 35.6328 1.52832C35.9043 1.54296 36.1581 1.56256 36.3818 1.58203L37.0068 3.45898L37.9727 34.832C37.9314 34.8558 37.8886 34.8799 37.8447 34.9053C36.389 35.1044 34.5117 35.5181 33.1475 36.4609C31.704 37.4588 30.6558 39.1685 29.9541 40.6182C29.9427 40.6299 29.9312 40.6416 29.9199 40.6533C28.0296 42.615 26.3233 45.5295 25.1201 47.8516C24.6537 48.7518 24.2519 49.584 23.9336 50.2695L23.0342 49.5205L24.9824 9.58301L26.751 6.0459C26.7571 6.03927 26.764 6.03246 26.7705 6.02539C26.8698 5.91747 27.0176 5.75943 27.2061 5.56641C27.5848 5.17859 28.1219 4.65467 28.752 4.11133C30.0693 2.97538 31.5814 1.9439 32.835 1.65625Z" fill="black" stroke="white" stroke-width="3"/>
</svg>
