<svg width="92" height="107" viewBox="0 0 92 107" fill="none" xmlns="http://www.w3.org/2000/svg">
<path d="M49.8838 9.12305L37.0713 49.042L36.4004 51.1338L38.5938 50.9971L54.2568 50.0176L55.5 50.5146V65.3789L54.7354 66.1426L28.6426 72.543L27.8828 72.7295L27.6006 73.46L16.7139 101.664L15.2959 103.082L2.16992 104.893L1.68359 104.245L34.7686 11.9053L36.6602 10.3926L49.1777 7.70996L49.8838 9.12305ZM72.9707 4.1543L72.5078 15.2666L68.6582 29.2197L66.1299 31.748L48.8213 39.7002L48.6904 39.5693L58.3555 6.70508L59.8809 4.79883L70.1387 1.67676L72.9707 4.1543ZM88.6143 9.8125L89.9697 17.9473L87.6387 27.7393L85.6455 29.7324L70.3447 36.2236L69.751 35.6299L78.6758 12.6152L87.2793 8.74414L88.6143 9.8125Z" fill="black" stroke="white" stroke-width="3"/>
</svg>
