<svg width="61" height="96" viewBox="0 0 61 96" fill="none" xmlns="http://www.w3.org/2000/svg">
<path d="M29.9189 1.5L30.4336 3.04395L20.5518 39.6084L19.9951 41.667L22.1211 41.4951L39.9297 40.0508L42.0488 42.1699L32.7188 55.5H31.1846L27.3643 54.5449L26.9795 54.4492L26.5986 54.5547L17.5986 57.0547L16.7568 57.2881L16.5449 58.1357L15.0605 64.0713L12.0859 72.501L12.0361 72.6406L12.0146 72.7881L11.0146 79.7881L11 79.8936V85.2285L9.73828 88.5908L3.10352 93.9824L2.9209 93.7998L1.5 82.9023V79.1504L15.8984 7.65234L17.4355 5.73047L27.3086 1.5H29.9189ZM42.9238 8.84766L43.4561 10.1787L42.0332 19.666L40.0664 26.0586L40.0293 26.1777L40.0127 26.3018L39.1172 33.0137L38.8643 33.1406L30.5371 36.8408L29.9492 36.5469L29.5088 28.626L31.9551 17.8643L34.3545 8.2666L35.0195 7.60059L42.9238 8.84766ZM58.7354 10.127L58.96 11.0254L57.5557 17.5791L54.5957 25.4736L54.5381 25.626L54.5146 25.7881L53.5625 32.4512L53.1973 33H45V28.71L46.9268 21.9658L51.7998 8.32031L52.377 7.74316L58.7354 10.127Z" fill="black" stroke="white" stroke-width="3"/>
</svg>
