<svg width="100" height="65" viewBox="0 0 100 65" fill="none" xmlns="http://www.w3.org/2000/svg">
<path d="M80 33H74V30H80V33ZM32 30H26V27H32V30Z" fill="#E8EAF4"/>
<path d="M74 42H77V45H83V48H74V45H71V36H74V42ZM26 39H29V42H35V45H26V42H23V33H26V39Z" fill="#87837F"/>
<path d="M83 51H74V48H83V51ZM35 48H26V45H35V48ZM74 48H71V45H74V48ZM74 33H80V30H86V33H89V45H86V48H83V45H77V42H74V36H71V45H68V33H71V30H74V33ZM26 45H23V42H26V45ZM26 30H32V27H38V30H41V42H38V45H35V42H29V39H26V33H23V42H20V30H23V27H26V30Z" fill="black"/>
</svg>
