<svg width="123" height="142" viewBox="0 0 123 142" fill="none" xmlns="http://www.w3.org/2000/svg">
<g clip-path="url(#clip0_456_262)">
<path d="M52.4385 33.9961L52.8291 34.6182L51.7002 37.3184L51.6865 37.3496L43.4258 58.0703L43.418 58.0908L43.4092 58.1123L35.4541 79.4424L25.9736 104.419L25.9238 104.55L25.8926 104.686L22.2217 120.836L22.2041 120.909L22.1934 120.984L19.9883 135.809L7.86719 136.346L7.47559 136.362L7.12012 136.526L2.84277 138.492L4.7041 130.252L4.70898 130.232L4.71289 130.214L7.43457 116.958L11.9229 105.039L24.1045 81.9902L24.1094 81.9805L24.1143 81.9697L37.2715 56.373L37.334 56.252L37.3789 56.123L45.1699 33.9961H52.4385ZM66.1592 73.834L67.8643 78.6455L74.8945 100.56L74.9102 100.609L74.9287 100.658L80.1299 114.37L80.1709 114.478L80.2236 114.58L84.8818 123.586L84.5889 124.022L72.5781 130.547L69.8281 123.698L66.7988 112.236L66.7705 112.127L66.7295 112.022L63.0586 102.576L63.0566 102.573L54.8564 81.5703L55.6152 80.3594L65.9971 73.6396L66.1592 73.834ZM98.4131 6.4375L84.5527 30.3848L84.4863 30.499L84.4355 30.6221L78.5205 44.9268H76.2344L65.6416 37.0811V36.5781L89.1436 2.48145L98.4131 6.4375ZM120.12 8.6416L114.779 19.5361L114.671 19.7559L114.619 19.9961L113.701 24.2617L113.689 24.3164L113.681 24.3721L110.741 43.1045L110.536 43.2676L96.209 40.5762L110.454 6.70215L111.229 6.37109L120.12 8.6416Z" fill="white" stroke="black" stroke-width="4"/>
</g>
<defs>
<clipPath id="clip0_456_262">
<rect width="123" height="142" fill="white"/>
</clipPath>
</defs>
</svg>
