<svg width="28" height="17" viewBox="0 0 28 17" fill="none" xmlns="http://www.w3.org/2000/svg">
<path fill-rule="evenodd" clip-rule="evenodd" d="M7.60267 5.17647C7.60267 5.17647 7.0991 6.59339 7.14267 7.52941C7.1779 8.28628 7.26606 8.73681 7.60267 9.41176C8.06451 10.3378 8.59149 10.7262 9.44267 11.2941C10.253 11.8347 10.7786 12.1528 11.7427 12.2353C12.6178 12.3102 13.1402 12.1102 13.9381 11.8047L14.0427 11.7647C15.024 11.3899 15.5754 11.0825 16.3427 10.3529C17.0006 9.72735 17.3525 9.30779 17.7227 8.47059C17.9948 7.8552 18.0568 7.43617 18.1477 6.82211C18.1588 6.74728 18.1703 6.66956 18.1827 6.58824C18.376 5.31709 18.1827 3.29412 18.1827 3.29412H13.5827L9.44267 3.76471L7.60267 5.17647ZM9.44 4.70588L8.06 5.64706L7.6 6.58824L8.52 6.11765C8.52 6.11765 8.98554 6.82636 9.44 7.05882C10.0827 7.38757 11.28 7.05882 11.28 7.05882C11.28 7.05882 11.6093 6.8111 11.74 6.58824C11.9615 6.21058 11.9465 5.8357 11.9315 5.46027C11.9278 5.36572 11.924 5.27114 11.924 5.17647C11.924 4.80892 11.74 4.23529 11.74 4.23529L9.44 4.70588ZM13.58 4.23529H16.8V5.64706C16.8 5.64706 16.3119 6.56502 15.88 7.05882C15.8306 7.11529 15.7902 7.16895 15.7522 7.21952C15.6597 7.34242 15.581 7.44707 15.42 7.52941C15.0986 7.69379 14.8379 7.65441 14.5 7.52941C14.1222 7.38965 13.7383 6.82211 13.7383 6.82211L13.58 4.23529ZM9.44 7.52941L8.98 8L9.9 8.47059H10.36L10.4992 9.26833L11.28 8.94118L11.5756 9.0481L11.28 9.41176L11.5756 9.64873L12.2 8.94118L12.3975 9.26833L12.2 9.41176V9.88235L12.66 10.3529L13.12 9.41176L13.7383 10.2694L13.9381 9.96907L13.7383 9.64873V9.26833L14.04 8.94118H14.96L14.5 9.41176V9.88235L16.8 7.52941H16.34L15.42 8.47059L14.5 8H13.58L12.66 8.94118L11.74 8H9.9L9.44 7.52941Z" fill="black"/>
<path d="M7.6 6.58824L8.06 5.64706L9.44 4.70588L11.74 4.23529C11.74 4.23529 11.924 4.80892 11.924 5.17647C11.924 5.27114 11.9278 5.36572 11.9315 5.46027C11.9465 5.8357 11.9615 6.21058 11.74 6.58824C11.6093 6.8111 11.28 7.05882 11.28 7.05882C11.28 7.05882 10.0827 7.38757 9.44 7.05882C8.98554 6.82636 8.52 6.11765 8.52 6.11765L7.6 6.58824Z" fill="white"/>
<path d="M13.58 4.23529H16.8V5.64706C16.8 5.64706 16.3119 6.56502 15.88 7.05882C15.8306 7.11529 15.7902 7.16895 15.7522 7.21952C15.6597 7.34242 15.581 7.44707 15.42 7.52941C15.0986 7.69379 14.8379 7.65441 14.5 7.52941C14.1222 7.38965 13.7383 6.82211 13.7383 6.82211L13.58 4.23529Z" fill="white"/>
<path d="M8.98 8L9.44 7.52941L9.9 8H11.74L12.66 8.94118L13.58 8H14.5L15.42 8.47059L16.34 7.52941H16.8L14.5 9.88235V9.41176L14.96 8.94118H14.04L13.7383 9.26833V9.64873L13.9381 9.96907L13.7383 10.2694L13.12 9.41176L12.66 10.3529L12.2 9.88235V9.41176L12.3975 9.26833L12.2 8.94118L11.5756 9.64873L11.28 9.41176L11.5756 9.0481L11.28 8.94118L10.4992 9.26833L10.36 8.47059H9.9L8.98 8Z" fill="white"/>
<path d="M3.92 7.05882L3.46 10.3529L4.84 7.52941L6.68 6.58824H7.6V5.64706C7.6 5.64706 9.50091 4.60657 10.82 4.23529C12.0447 3.89057 12.7719 3.84101 14.04 3.76471C14.9367 3.71075 16.34 3.76471 16.34 3.76471L19.1 4.70588L19.56 3.76471L20.94 4.23529L22.78 3.29412V4.23529L21.4 5.64706C21.4 5.64706 20.7369 7.74913 20.02 8.94118C19.4172 9.94342 19.0524 10.5272 18.18 11.2941C17.3855 11.9925 16.853 12.3089 15.88 12.7059C14.2031 13.3901 13.0838 13.2544 11.28 13.1765C10.0109 13.1216 9.27944 13.0697 8.06 12.7059C6.51751 12.2456 4.38 10.8235 4.38 10.8235H3L3.92 11.2941L6.22 12.7059L8.06 14.1176L10.82 14.5882V16L11.74 14.5882L13.12 16L14.04 14.5882H14.5L15.42 15.0588L15.88 14.1176L17.26 14.5882V13.1765L19.1 11.7647L20.48 12.2353L19.56 11.2941L20.48 10.3529L21.86 10.8235L20.94 9.88235V9.41176L21.86 8.47059L22.32 7.52941L24.16 8L22.78 6.58824L24.16 6.11765V5.64706L25.08 4.70588H23.7L24.16 2.82353L24.62 2.35294L26 0C26 0 24.7537 1.41047 23.7 1.88235C23.0215 2.18621 21.86 2.35294 21.86 2.35294H19.1L17.26 0.941176L15.42 2.35294H12.2C12.2 2.35294 10.7762 2.55033 9.9 2.82353C7.18302 3.67069 3.92 7.05882 3.92 7.05882Z" fill="black"/>
</svg>
