<svg width="28" height="16" viewBox="0 0 28 16" fill="none" xmlns="http://www.w3.org/2000/svg">
<path fill-rule="evenodd" clip-rule="evenodd" d="M9.07785 3.70968L9.54213 6.87097L10.4707 9.12903L12.7921 10.9355L15.1136 11.3871H17.8993L19.7564 10.4839L21.1493 8.22581L21.6136 6.41935L20.685 3.70968L11.8636 3.25806L9.07785 3.70968ZM10.0064 5.51613V4.16129L12.7921 3.70968L13.7207 4.16129C13.7207 4.16129 13.7207 4.71178 13.7207 5.06452C13.7207 5.41725 13.7207 5.96774 13.7207 5.96774C13.7207 5.96774 12.9765 6.79209 12.3278 6.87097C12.1479 6.89284 12.0356 6.92674 11.8636 6.87097C11.6203 6.79209 11.6017 6.57248 11.3993 6.41935C11.0792 6.17724 10.7907 6.20986 10.4707 5.96774C10.2683 5.81461 10.0064 5.51613 10.0064 5.51613ZM16.9707 5.96774C16.9963 6.14234 16.9134 6.25204 16.9707 6.41935C17.0518 6.65597 17.2056 6.75942 17.435 6.87097C17.9478 7.12039 18.8278 6.41935 18.8278 6.41935C18.8278 6.41935 19.221 5.61793 19.2921 5.06452C19.3371 4.71451 19.2921 4.16129 19.2921 4.16129L17.435 4.6129H16.5064C16.5064 4.6129 16.4808 4.88992 16.5064 5.06452C16.5638 5.45492 16.9134 5.57734 16.9707 5.96774ZM10.935 7.77419C10.4727 7.32455 10.0064 6.41935 10.0064 6.41935H10.4707C10.4707 6.41935 11.2238 7.19158 11.8636 7.32258C12.2184 7.39525 12.4381 7.3991 12.7921 7.32258C13.1879 7.23703 13.7207 6.87097 13.7207 6.87097H14.185L14.6493 7.77419H15.5778L16.5064 6.87097L17.8993 7.77419V8.22581L18.3636 8.67742L17.8993 9.12903L17.435 8.67742H16.9707L17.435 9.58064H16.5064L16.0421 9.12903L15.1136 9.58064C15.1136 9.58064 14.8517 9.28216 14.6493 9.12903C14.3292 8.88691 13.7207 8.67742 13.7207 8.67742V9.58064C13.7207 9.58064 13.295 8.77525 12.7921 8.67742C12.6143 8.64283 12.5078 8.69929 12.3278 8.67742C11.6792 8.59855 11.3973 8.22384 10.935 7.77419Z" fill="black"/>
<path d="M10.0064 6.41935C10.0064 6.41935 10.4727 7.32455 10.935 7.77419C11.3973 8.22384 11.6792 8.59855 12.3278 8.67742C12.5078 8.69929 12.6143 8.64283 12.7921 8.67742C13.295 8.77525 13.7207 9.58064 13.7207 9.58064V8.67742C13.7207 8.67742 14.3292 8.88691 14.6493 9.12903C14.8517 9.28216 15.1136 9.58064 15.1136 9.58064L16.0421 9.12903L16.5064 9.58064H17.435L16.9707 8.67742H17.435L17.8993 9.12903L18.3636 8.67742L17.8993 8.22581V7.77419L16.5064 6.87097L15.5778 7.77419H14.6493L14.185 6.87097H13.7207C13.7207 6.87097 13.1879 7.23703 12.7921 7.32258C12.4381 7.3991 12.2184 7.39525 11.8636 7.32258C11.2238 7.19158 10.4707 6.41935 10.4707 6.41935H10.0064Z" fill="white"/>
<path d="M16.5064 5.06452C16.5638 5.45492 16.9134 5.57734 16.9707 5.96774C16.9963 6.14234 16.9134 6.25204 16.9707 6.41935C17.0518 6.65597 17.2056 6.75942 17.435 6.87097C17.9478 7.12039 18.8278 6.41935 18.8278 6.41935C18.8278 6.41935 19.221 5.61793 19.2921 5.06452C19.3371 4.71451 19.2921 4.16129 19.2921 4.16129L17.435 4.6129H16.5064C16.5064 4.6129 16.4808 4.88992 16.5064 5.06452Z" fill="white"/>
<path d="M10.0064 4.16129V5.51613C10.0064 5.51613 10.2683 5.81461 10.4707 5.96774C10.7907 6.20986 11.0792 6.17724 11.3993 6.41935C11.6017 6.57248 11.6203 6.79209 11.8636 6.87097C12.0356 6.92674 12.1479 6.89284 12.3278 6.87097C12.9765 6.79209 13.7207 5.96774 13.7207 5.96774V5.06452V4.16129L12.7921 3.70968L10.0064 4.16129Z" fill="white"/>
<path d="M23.75 10.4839C24.6987 9.64498 26.0714 8.22581 26.0714 8.22581L24.2143 8.67742L23.2857 9.12903L21.4286 10.4839C21.4286 10.4839 19.8586 11.8222 18.6429 12.2903C17.1162 12.8781 16.0739 13.0569 14.4643 12.7419C13.5071 12.5546 12.1429 11.8387 12.1429 11.8387C12.1429 11.8387 11.2337 11.6865 10.75 11.3871C10.3173 11.1193 9.82143 10.4839 9.82143 10.4839C9.82143 10.4839 7.56953 9.39165 6.57143 8.22581C6.15309 7.73716 5.64286 6.87097 5.64286 6.87097L4.25 5.06452L6.57143 4.6129L8.42857 4.16129H20.0357C20.0357 4.16129 20.9113 4.37227 21.4286 4.6129C22.0183 4.88726 22.2513 5.20502 22.8214 5.51613C23.175 5.70907 23.75 5.96774 23.75 5.96774L25.6071 6.87097V7.32258L26.5357 7.77419L27 7.32258L26.5357 6.87097C26.5357 6.87097 25.36 6.09777 24.6786 5.51613C24.1004 5.02259 23.2857 4.16129 23.2857 4.16129L20.9643 3.25806L17.25 3.07742L14 2.80645L13.0714 1L12.6071 2.80645H11.2143L10.75 1.45161L9.82143 2.35484H7.96429L5.64286 1.45161L6.57143 2.35484C6.57143 2.35484 5.80121 3.06426 5.17857 3.25806C4.48782 3.47307 3.32143 3.25806 3.32143 3.25806L1.92857 1.90323L2.85714 3.25806V4.16129L1 3.25806L2.85714 4.6129L4.25 7.32258L1.92857 5.51613L4.71429 9.58064L5.17857 11.3871L6.57143 10.9355L7.03571 11.3871L6.57143 13.1935L7.96429 11.8387L8.42857 12.7419L7.96429 13.6452L9.35714 13.1935L9.82143 13.6452H10.75C10.75 13.6452 12.6884 14.4034 14 14.5484C14.9008 14.648 16.3214 14.5484 16.3214 14.5484L17.25 15L17.7143 14.0968L19.5714 13.6452C19.5714 13.6452 22.2203 11.8365 23.75 10.4839Z" fill="black"/>
</svg>
