<svg width="35" height="18" viewBox="0 0 35 18" fill="none" xmlns="http://www.w3.org/2000/svg">
<path d="M6.12308 4.1875C4.65376 5.29324 3 7.6875 3 7.6875C3 7.6875 4.8823 7.42085 5.23077 7.25C5.57924 7.07915 5.81885 7.05116 6.12308 6.8125C6.73153 6.33518 6.40693 5.53982 7.01538 5.0625C7.31961 4.82384 7.53182 4.72552 7.90769 4.625C8.41198 4.49014 9.24615 4.625 9.24615 4.625C9.24615 4.625 10.3189 4.96816 11.0308 5.0625C11.8941 5.1769 12.3904 5.0625 13.2615 5.0625C14.6554 5.0625 15.4388 5.13341 16.8308 5.0625C18.4064 4.98224 20.8462 4.625 20.8462 4.625C20.8462 4.625 22.2247 4.43365 23.0769 4.1875C23.977 3.92754 24.4124 3.58768 25.3077 3.3125C25.9932 3.10181 27.0923 2.875 27.0923 2.875C27.0923 2.875 28.2028 2.70161 28.8769 2.875C29.9561 3.15256 31.1077 4.625 31.1077 4.625C31.1077 4.625 30.8833 4.06411 30.6615 3.75C30.1657 3.04762 28.8769 2.4375 28.8769 2.4375C28.8769 2.4375 27.8107 2 27.0923 2C26.3739 2 25.3077 2.4375 25.3077 2.4375C25.3077 2.4375 23.7022 3.05977 22.6308 3.3125C20.9283 3.7141 18.1692 3.75 18.1692 3.75C18.1692 3.75 14.8979 3.93287 12.8154 3.75C11.5883 3.64224 10.9222 3.38344 9.69231 3.3125C8.82264 3.26234 8.28196 3.02518 7.46154 3.3125C6.86993 3.51969 6.62144 3.81245 6.12308 4.1875Z" fill="black"/>
<path d="M8.35385 9.875C7.31652 9.74785 5.67692 9.875 5.67692 9.875L8.35385 10.75L10.1385 11.625L13.2615 14.6875L13.7077 13.375L16.3846 15.5625V14.25L18.6154 16V15.125H21.7385V16L24.8615 13.8125H25.7538L26.2 12.5H27.9846L27.5385 12.0625L29.7692 11.625L27.9846 10.3125C27.9846 10.3125 29.1632 10.2532 29.7692 9.875C30.185 9.61556 30.6615 9 30.6615 9H28.8769C28.8769 9 30.4253 7.24609 31.1077 5.9375C31.5349 5.11831 32 3.75 32 3.75C32 3.75 30.9315 4.13132 30.2154 4.1875C29.868 4.21475 29.3231 4.1875 29.3231 4.1875C29.3231 4.1875 28.2468 7.02395 27.0923 8.5625C26.07 9.92479 23.9692 11.625 23.9692 11.625C23.9692 11.625 22.5045 13.0508 21.2923 13.375C20.2837 13.6447 19.6569 13.4632 18.6154 13.375C17.015 13.2395 16.0693 13.1366 14.6 12.5C13.6707 12.0974 13.2808 11.6273 12.3692 11.1875C10.8861 10.4719 9.99401 10.076 8.35385 9.875Z" fill="black"/>
<path d="M13.7077 8.125L13.2615 5.5L12.8154 4.625H13.7077V6.375C13.7077 6.375 13.9147 6.94843 14.1538 7.25C14.3051 7.44073 14.3796 7.57944 14.6 7.6875C14.9117 7.84032 15.1521 7.76163 15.4923 7.6875C15.8726 7.60462 16.1091 7.52014 16.3846 7.25C16.7742 6.86796 16.9087 6.47236 16.8308 5.9375C16.7757 5.5593 16.3846 5.0625 16.3846 5.0625V4.625L21.7385 4.1875C21.7385 4.1875 21.8888 5.04418 22.1846 5.5C22.4492 5.9077 22.6361 6.15888 23.0769 6.375C23.7003 6.68063 24.8615 6.375 24.8615 6.375C24.8615 6.375 25.2232 5.87294 25.3077 5.5C25.3833 5.16643 25.3509 4.96407 25.3077 4.625C25.2394 4.08888 24.8615 3.3125 24.8615 3.3125L25.7538 2.875L26.2 5.5V7.25L25.3077 9.4375L23.5231 11.1875L21.7385 12.0625H19.9538L17.7231 11.625L15.4923 10.75L13.7077 8.125Z" fill="black"/>
<path d="M6.12308 4.1875C4.65376 5.29324 3 7.6875 3 7.6875C3 7.6875 4.8823 7.42085 5.23077 7.25C5.57924 7.07915 5.81885 7.05116 6.12308 6.8125C6.73153 6.33518 6.40693 5.53982 7.01538 5.0625C7.31961 4.82384 7.53182 4.72552 7.90769 4.625C8.41198 4.49014 9.24615 4.625 9.24615 4.625C9.24615 4.625 10.3189 4.96816 11.0308 5.0625C11.8941 5.1769 12.3904 5.0625 13.2615 5.0625C14.6554 5.0625 15.4388 5.13341 16.8308 5.0625C18.4064 4.98224 20.8462 4.625 20.8462 4.625C20.8462 4.625 22.2247 4.43365 23.0769 4.1875C23.977 3.92754 24.4124 3.58768 25.3077 3.3125C25.9932 3.10181 27.0923 2.875 27.0923 2.875C27.0923 2.875 28.2028 2.70161 28.8769 2.875C29.9561 3.15256 31.1077 4.625 31.1077 4.625C31.1077 4.625 30.8833 4.06411 30.6615 3.75C30.1657 3.04762 28.8769 2.4375 28.8769 2.4375C28.8769 2.4375 27.8107 2 27.0923 2C26.3739 2 25.3077 2.4375 25.3077 2.4375C25.3077 2.4375 23.7022 3.05977 22.6308 3.3125C20.9283 3.7141 18.1692 3.75 18.1692 3.75C18.1692 3.75 14.8979 3.93287 12.8154 3.75C11.5883 3.64224 10.9222 3.38344 9.69231 3.3125C8.82264 3.26234 8.28196 3.02518 7.46154 3.3125C6.86993 3.51969 6.62144 3.81245 6.12308 4.1875Z" stroke="black" stroke-width="0.2"/>
<path d="M8.35385 9.875C7.31652 9.74785 5.67692 9.875 5.67692 9.875L8.35385 10.75L10.1385 11.625L13.2615 14.6875L13.7077 13.375L16.3846 15.5625V14.25L18.6154 16V15.125H21.7385V16L24.8615 13.8125H25.7538L26.2 12.5H27.9846L27.5385 12.0625L29.7692 11.625L27.9846 10.3125C27.9846 10.3125 29.1632 10.2532 29.7692 9.875C30.185 9.61556 30.6615 9 30.6615 9H28.8769C28.8769 9 30.4253 7.24609 31.1077 5.9375C31.5349 5.11831 32 3.75 32 3.75C32 3.75 30.9315 4.13132 30.2154 4.1875C29.868 4.21475 29.3231 4.1875 29.3231 4.1875C29.3231 4.1875 28.2468 7.02395 27.0923 8.5625C26.07 9.92479 23.9692 11.625 23.9692 11.625C23.9692 11.625 22.5045 13.0508 21.2923 13.375C20.2837 13.6447 19.6569 13.4632 18.6154 13.375C17.015 13.2395 16.0693 13.1366 14.6 12.5C13.6707 12.0974 13.2808 11.6273 12.3692 11.1875C10.8861 10.4719 9.99401 10.076 8.35385 9.875Z" stroke="black" stroke-width="0.2"/>
<path d="M13.7077 8.125L13.2615 5.5L12.8154 4.625H13.7077V6.375C13.7077 6.375 13.9147 6.94843 14.1538 7.25C14.3051 7.44073 14.3796 7.57944 14.6 7.6875C14.9117 7.84032 15.1521 7.76163 15.4923 7.6875C15.8726 7.60462 16.1091 7.52014 16.3846 7.25C16.7742 6.86796 16.9087 6.47236 16.8308 5.9375C16.7757 5.5593 16.3846 5.0625 16.3846 5.0625V4.625L21.7385 4.1875C21.7385 4.1875 21.8888 5.04418 22.1846 5.5C22.4492 5.9077 22.6361 6.15888 23.0769 6.375C23.7003 6.68063 24.8615 6.375 24.8615 6.375C24.8615 6.375 25.2232 5.87294 25.3077 5.5C25.3833 5.16643 25.3509 4.96407 25.3077 4.625C25.2394 4.08888 24.8615 3.3125 24.8615 3.3125L25.7538 2.875L26.2 5.5V7.25L25.3077 9.4375L23.5231 11.1875L21.7385 12.0625H19.9538L17.7231 11.625L15.4923 10.75L13.7077 8.125Z" stroke="black" stroke-width="0.2"/>
<path d="M17.0201 7.75148C17.0822 7.08413 17.022 6.50059 17.3951 6.08481C17.7682 5.66903 18.147 6.91715 18.147 6.91715L17.772 8.58382L17.3951 9.41814L17.0201 9.00148C17.0201 9.00148 16.9749 8.23704 17.0201 7.75148Z" fill="white"/>
<path d="M19.25 8.91667C19.25 9.14679 19.0821 9.33333 18.875 9.33333C18.6679 9.33333 18.5 9.14679 18.5 8.91667C18.5 8.68655 18.6679 8.5 18.875 8.5C19.0821 8.5 19.25 8.68655 19.25 8.91667Z" fill="white"/>
<path d="M20 10.5833C20 10.8135 19.8321 11 19.625 11C19.4179 11 19.25 10.8135 19.25 10.5833C19.25 10.3532 19.4179 10.1667 19.625 10.1667C19.8321 10.1667 20 10.3532 20 10.5833Z" fill="white"/>
</svg>
