<svg width="35" height="18" viewBox="0 0 35 18" fill="none" xmlns="http://www.w3.org/2000/svg">
<path d="M8.86957 2.48961C7.43985 3.13346 6 5.19163 6 5.19163H7.91304L8.86957 5.64196C8.86957 5.64196 9.63907 4.6963 10.3043 4.29095C10.655 4.07732 10.8579 3.94409 11.2609 3.84062C11.8014 3.7018 12.6957 3.84062 12.6957 3.84062L15.087 5.19163H26.087L27.5217 5.64196L26.5652 4.74129C26.5652 4.74129 23.6391 4.55189 21.7826 4.29095C19.8988 4.02618 17 3.39028 17 3.39028C17 3.39028 14.6837 2.77635 13.1739 2.48961C12.0602 2.27809 11.4265 1.87243 10.3043 2.03927C9.72095 2.12601 9.40239 2.24966 8.86957 2.48961Z" fill="black"/>
<path d="M8.86957 6.09261H7.43478L7.91304 7.44361L8.86957 8.34429L8.3913 8.79462L6.47826 8.34429L8.86957 10.1456L8.3913 11.0463H9.34783L10.3043 12.3973L9.34783 13.298L10.7826 13.7483V15.0993L12.2174 14.1987H13.1739L13.6522 16L14.1304 14.649H15.087V15.5497L15.5652 14.649H17L17.4783 15.5497L17.9565 14.649C17.9565 14.649 18.8334 14.6977 19.3913 14.649C20.9803 14.5102 21.8087 14.0039 23.2174 13.298C24.6357 12.5872 25.3689 12.0562 26.5652 11.0463C27.1552 10.5482 28 9.69529 28 9.69529V8.34429C28 8.34429 27.1635 9.206 26.5652 9.69529C25.235 10.7833 24.3504 11.2754 22.7391 11.947C21.659 12.3972 21.0389 12.6903 19.8696 12.8476C18.9451 12.972 17.4783 12.8476 17.4783 12.8476C17.4783 12.8476 15.6407 12.8446 14.6087 12.3973C13.997 12.1322 13.6981 11.8947 13.1739 11.4966C12.0384 10.6344 10.7826 8.79462 10.7826 8.79462L8.86957 6.09261Z" fill="black"/>
<path d="M18.9131 6.50336V4.25168L23.2174 4.70202C23.2174 4.70202 23.4371 5.831 23.2174 6.50336C23.0946 6.87922 22.7392 7.40403 22.7392 7.40403L22.2609 7.85437C22.2609 7.85437 21.3959 8.45104 20.8261 8.30471C20.3165 8.17382 19.8048 7.90456 19.3913 7.40403C19.1349 7.09362 18.9131 6.9537 18.9131 6.50336Z" fill="black"/>
<path d="M17 7.85437L15.087 6.05303C15.087 6.05303 15.2455 7.19468 15.5652 7.85437C15.8448 8.43125 16.0727 8.73282 16.5217 9.20538C17.1444 9.8607 17.5839 10.194 18.4348 10.5564C19.1276 10.8515 19.5734 10.9082 20.3193 11.0031L20.3478 11.0067C21.2733 11.1245 21.8234 11.1792 22.7391 11.0067C23.3183 10.8977 23.6456 10.8051 24.1739 10.5564C25.3552 10.0002 25.9746 9.41699 26.5652 8.30471C26.8294 7.80728 26.8567 7.4813 27.0435 6.9537L27.5217 5.60269L26.087 4.70202C26.087 4.70202 26.8993 5.87416 26.5652 6.50336C26.329 6.94827 26.0544 7.13698 25.6087 7.40403C25.1104 7.70261 24.1739 7.85437 24.1739 7.85437L22.2609 6.50336L21.7826 6.9537L23.6957 8.30471C23.6957 8.30471 23.4179 8.59318 23.2174 8.75504C22.5832 9.26689 22.1295 9.53383 21.3043 9.65571C20.3635 9.79468 19.7107 9.69524 18.913 9.20538C18.4706 8.93365 17.9565 8.30471 17.9565 8.30471L19.8696 6.50336L19.3913 6.05303L17 7.85437Z" fill="black"/>
<path d="M8.86957 2.48961C7.43985 3.13346 6 5.19163 6 5.19163H7.91304L8.86957 5.64196C8.86957 5.64196 9.63907 4.6963 10.3043 4.29095C10.655 4.07732 10.8579 3.94409 11.2609 3.84062C11.8014 3.7018 12.6957 3.84062 12.6957 3.84062L15.087 5.19163H26.087L27.5217 5.64196L26.5652 4.74129C26.5652 4.74129 23.6391 4.55189 21.7826 4.29095C19.8988 4.02618 17 3.39028 17 3.39028C17 3.39028 14.6837 2.77635 13.1739 2.48961C12.0602 2.27809 11.4265 1.87243 10.3043 2.03927C9.72095 2.12601 9.40239 2.24966 8.86957 2.48961Z" stroke="black" stroke-width="0.2"/>
<path d="M8.86957 6.09261H7.43478L7.91304 7.44361L8.86957 8.34429L8.3913 8.79462L6.47826 8.34429L8.86957 10.1456L8.3913 11.0463H9.34783L10.3043 12.3973L9.34783 13.298L10.7826 13.7483V15.0993L12.2174 14.1987H13.1739L13.6522 16L14.1304 14.649H15.087V15.5497L15.5652 14.649H17L17.4783 15.5497L17.9565 14.649C17.9565 14.649 18.8334 14.6977 19.3913 14.649C20.9803 14.5102 21.8087 14.0039 23.2174 13.298C24.6357 12.5872 25.3689 12.0562 26.5652 11.0463C27.1552 10.5482 28 9.69529 28 9.69529V8.34429C28 8.34429 27.1635 9.206 26.5652 9.69529C25.235 10.7833 24.3504 11.2754 22.7391 11.947C21.659 12.3972 21.0389 12.6903 19.8696 12.8476C18.9451 12.972 17.4783 12.8476 17.4783 12.8476C17.4783 12.8476 15.6407 12.8446 14.6087 12.3973C13.997 12.1322 13.6981 11.8947 13.1739 11.4966C12.0384 10.6344 10.7826 8.79462 10.7826 8.79462L8.86957 6.09261Z" stroke="black" stroke-width="0.2"/>
<path d="M18.9131 6.50336V4.25168L23.2174 4.70202C23.2174 4.70202 23.4371 5.831 23.2174 6.50336C23.0946 6.87922 22.7392 7.40403 22.7392 7.40403L22.2609 7.85437C22.2609 7.85437 21.3959 8.45104 20.8261 8.30471C20.3165 8.17382 19.8048 7.90456 19.3913 7.40403C19.1349 7.09362 18.9131 6.9537 18.9131 6.50336Z" stroke="black" stroke-width="0.2"/>
<path d="M17 7.85437L15.087 6.05303C15.087 6.05303 15.2455 7.19468 15.5652 7.85437C15.8448 8.43125 16.0727 8.73282 16.5217 9.20538C17.1444 9.8607 17.5839 10.194 18.4348 10.5564C19.1276 10.8515 19.5734 10.9082 20.3193 11.0031L20.3478 11.0067C21.2733 11.1245 21.8234 11.1792 22.7391 11.0067C23.3183 10.8977 23.6456 10.8051 24.1739 10.5564C25.3552 10.0002 25.9746 9.41699 26.5652 8.30471C26.8294 7.80728 26.8567 7.4813 27.0435 6.9537L27.5217 5.60269L26.087 4.70202C26.087 4.70202 26.8993 5.87416 26.5652 6.50336C26.329 6.94827 26.0544 7.13698 25.6087 7.40403C25.1104 7.70261 24.1739 7.85437 24.1739 7.85437L22.2609 6.50336L21.7826 6.9537L23.6957 8.30471C23.6957 8.30471 23.4179 8.59318 23.2174 8.75504C22.5832 9.26689 22.1295 9.53383 21.3043 9.65571C20.3635 9.79468 19.7107 9.69524 18.913 9.20538C18.4706 8.93365 17.9565 8.30471 17.9565 8.30471L19.8696 6.50336L19.3913 6.05303L17 7.85437Z" stroke="black" stroke-width="0.2"/>
</svg>
