<svg width="29" height="17" viewBox="0 0 29 17" fill="none" xmlns="http://www.w3.org/2000/svg">
<path d="M1 12L2 13.5L4 13L6.5 10.5L12 7.5L21.5 3L22.5 3.5H24.5V4.5L19 9.5L13.5 13.5L11.5 14L5.5 13.5L4 14.5L5.5 15L6.5 15.5L7 15L13 16L15 15H16.5L17.5 13.5L21.5 10.5V9.5L23 8.5L23.5 7.5L25 6.5V6L26 4L28 1.5H24.5L22 1L10.5 6.5L2.5 10L1 12Z" fill="black"/>
<path d="M12 11.5C11.47 11.8905 13 12.8571 13 12.8571L14 12.2143C14 12.2143 13.821 11.6135 13.5 11.5C13.3806 11.4578 13.2879 11.4703 13.1842 11.4844C13.128 11.492 13.0686 11.5 13 11.5C12.8628 11.5 12.7373 11.4714 12.6187 11.4443C12.3997 11.3944 12.2039 11.3498 12 11.5Z" fill="white"/>
<path fill-rule="evenodd" clip-rule="evenodd" d="M12 13.5L11 12V10.5L13 8.5L15 7.5H18L19 8.5V9L18.3485 9.41882L18 9L16.5 8.5H15L14 9.5H13L12.6187 10.1123L13.1842 10.7165L14 10.1123L14.5 9.5L15.5 9L16.5 9.5L16.6667 10.5L14 12.2143C14 12.2143 13.821 11.6135 13.5 11.5C13.3806 11.4578 13.2879 11.4703 13.1842 11.4844C13.128 11.492 13.0686 11.5 13 11.5C12.8628 11.5 12.7373 11.4714 12.6187 11.4443C12.3997 11.3944 12.2039 11.3498 12 11.5C11.47 11.8905 13 12.8571 13 12.8571L12 13.5Z" fill="black"/>
<path d="M12.6187 10.1123L13.1842 10.7165L14 10.1123L14.5 9.5L15.5 9L16.5 9.5L16.6667 10.5L18.3485 9.41882L18 9L16.5 8.5H15L14 9.5H13L12.6187 10.1123Z" fill="white"/>
</svg>
