<svg width="128" height="64" viewBox="0 0 128 64" fill="none" xmlns="http://www.w3.org/2000/svg">
<path fill-rule="evenodd" clip-rule="evenodd" d="M4.20844 1.5L1.20992 6.5C1.20992 6.5 0.738066 15.2625 1.20922 17C3.33481 24.8385 8.70922 33.5 8.70922 33.5C8.70922 33.5 13.0689 35.1955 14.7092 35.5C18.9022 36.2784 23.7084 33.5 23.7084 33.5L26.4587 31.8075L28.709 30.4227L28.9834 30.2539L29.209 30.115L30.2084 29.5L32.2084 31L35.2084 33.5H37.7084C37.7084 33.5 37.9001 35.3388 38.2995 38C38.3182 38.1241 38.3373 38.25 38.3568 38.3776C38.3826 38.5461 38.4092 38.7175 38.4366 38.8916C38.6116 40.0047 38.8191 41.2281 39.0601 42.5C39.7004 45.8792 40.577 49.6001 41.7084 52.5L47.2092 57L52.2092 47V46H51.2092L46.2092 54L40.7084 42L38.7092 34L40.2092 33L37.7084 32.5L32.7092 28.5L29.7092 28L31.2092 25.5L28.2092 23L26.2092 22.5L21.2092 18H19.7092L9.70922 31.5L7.20922 28.5L6.70922 27.5L9.70922 28.5L13.2092 20L12.7092 18.5L7.20922 25L3.70922 21.5L2.20922 16V6.5L5.70922 3L26.2092 20.5L28.2092 21.5L31.7092 24.5L33.2084 27.5L37.7084 31L40.7092 32L44.7092 33L51.2092 38.5L75.7092 54V55L58.2092 45.5L54.7092 43L54.2092 46.5L48.2092 59H46.7084L42.7402 55.5337C42.9726 56.2039 43.2301 56.8409 43.597 57.478C43.886 57.9798 44.2428 58.4817 44.7084 59C46.41 60.8938 50.2084 62.5 50.2084 62.5C50.2084 62.5 62.1942 63.3364 70.2084 61.5C72.9797 60.865 77.7084 59.5 77.7084 59.5L80.2084 56.5L80.0339 55.5337L77.9552 54.097L77.209 53.5813L76.7092 53.2358L46.7084 32.5L44.2084 30.5H40.7084C40.7084 30.5 37.7408 28.6151 36.2084 27C35.3479 26.093 34.2084 24.5 34.2084 24.5L33.2084 21.5L6.20844 1L4.20844 1.5Z" fill="black"/>
<path d="M5.70922 3L2.20922 6.5V16L3.70922 21.5L7.20922 25L12.7092 18.5L13.2092 20L9.70922 28.5L6.70922 27.5L7.20922 28.5L9.70922 31.5L19.7092 18H21.2092L26.2092 22.5L28.2092 23L31.2092 25.5L29.7092 28L32.7092 28.5L37.7084 32.5L40.2092 33L38.7092 34L40.7084 42L46.2092 54L51.2092 46H52.2092V47L47.2092 57L41.7084 52.5C42.1498 53.6313 42.4212 54.6138 42.7402 55.5337L46.7084 59H48.2092L54.2092 46.5L54.7092 43L58.2092 45.5L75.7092 55V54L51.2092 38.5L44.7092 33L40.7092 32L37.7084 31L33.2084 27.5L31.7092 24.5L28.2092 21.5L26.2092 20.5L5.70922 3Z" fill="white"/>
<path fill-rule="evenodd" clip-rule="evenodd" d="M80.2084 56.5L80.0339 55.5337L77.9552 54.097L98.209 26.5L115.209 9L124.709 1.5H123.709L114.709 8.5L97.709 26L77.209 53.5813L76.7092 53.2358L97.2092 25.5L114.209 8L123.709 1H124.709L126.209 2L127.209 4.5L126.709 5.5L118.209 12L101.709 29L90.9587 42.75L80.2084 56.5Z" fill="black"/>
<path d="M97.709 26L77.209 53.5813L77.9552 54.097L98.209 26.5L115.209 9L124.709 1.5H123.709L114.709 8.5L97.709 26Z" fill="white"/>
<path fill-rule="evenodd" clip-rule="evenodd" d="M29.209 30.115L38.2995 38C38.3182 38.1241 38.3373 38.25 38.3568 38.3776L28.9834 30.2539L29.209 30.115ZM28.709 30.4227L26.4587 31.8075L39.0601 42.5C38.8191 41.2281 38.6116 40.0047 38.4366 38.8916L28.709 30.4227Z" fill="black"/>
<path d="M38.3568 38.3776L28.9834 30.2539L28.709 30.4227L38.4366 38.8916C38.4092 38.7175 38.3826 38.5461 38.3568 38.3776Z" fill="white"/>
<path d="M50.2084 62.5C50.2084 62.5 46.41 60.8938 44.7084 59C44.2428 58.4817 43.886 57.9798 43.597 57.478L44.7084 60L50 63H61L70.2084 62L77.9552 60L80.5 57L90.9587 42.75L80.2084 56.5L77.7084 59.5C77.7084 59.5 72.9797 60.865 70.2084 61.5C62.1942 63.3364 50.2084 62.5 50.2084 62.5Z" fill="white"/>
</svg>
