<svg width="29" height="17" viewBox="0 0 29 17" fill="none" xmlns="http://www.w3.org/2000/svg">
<path d="M5 11.5L4 11V10.5C4 10.5 5.6507 9.54789 6 8.5C6.24699 7.75903 6 6.5 6 6.5L7 5.5H10C10 5.5 10.3305 5.21797 10.5 5C10.7681 4.65535 11 4 11 4L12 4.5H13L17.5 3H22L23.5 4L24 5.5L21 9.5L17 13H16L14.5 14L13 13.5H12L11 14L10.5 13H9V12.5L8 12V11.5L9 10.5L15.5 11H16.5L21 7.5L21.5 6.5L23 5.5L22.5 4.5C22.5 4.5 21.9262 4.09472 21.5 4C21.1188 3.91528 20.5 4 20.5 4L15.5 5.5L8.5 7.5C8.5 7.5 8.16709 7.78015 8 8C7.51286 8.64098 7.89389 9.29785 7.5 10C7.09469 10.7225 6 11.5 6 11.5H5Z" fill="black"/>
<path d="M14.5 10V10.5H15.5V10C15.5 10 15.2277 9.7 15 9.7C14.7723 9.7 14.5 10 14.5 10Z" fill="white"/>
<path d="M19.6124 8.32302C19.6124 8.32302 19.2555 8.08855 19 8C18.4465 7.80816 17.5 8 17.5 8C17.5 8 17.3575 8.1834 17.3224 8.32302C17.2558 8.5881 17.5 9 17.5 9C17.5 9 18.1603 8.8074 18.5 9C18.5676 9.0383 18.6625 9.11456 18.6625 9.11456L19.6124 8.32302Z" fill="white"/>
<path fill-rule="evenodd" clip-rule="evenodd" d="M12 9L12.5 10.5H14.5V10C14.5 10 14.7723 9.7 15 9.7C15.2277 9.7 15.5 10 15.5 10V10.5H16.8L18.6625 9.11456C18.6625 9.11456 18.5676 9.0383 18.5 9C18.1603 8.8074 17.5 9 17.5 9C17.5 9 17.2558 8.5881 17.3224 8.32302C17.3575 8.1834 17.5 8 17.5 8C17.5 8 18.4465 7.80816 19 8C19.2555 8.08855 19.6124 8.32302 19.6124 8.32302L20 8V7.5L18.5 6.5H15.5L12.5 8.5L12 9ZM16 9.5C16.2558 9.3961 16.4127 9.26197 16.5 9C16.6381 8.58579 16 8 16 8C16 8 15.5949 8.14907 15.3882 8.32302C15.1059 8.56055 14.8724 9.11456 14.8724 9.11456C14.8724 9.11456 15.5688 9.6751 16 9.5Z" fill="black"/>
<path d="M16 8C16 8 16.6381 8.58579 16.5 9C16.4127 9.26197 16.2558 9.3961 16 9.5C15.5688 9.6751 14.8724 9.11456 14.8724 9.11456C14.8724 9.11456 15.1059 8.56055 15.3882 8.32302C15.5949 8.14907 16 8 16 8Z" fill="white"/>
</svg>
