<svg width="48" height="26" viewBox="0 0 48 26" fill="none" xmlns="http://www.w3.org/2000/svg">
<g clip-path="url(#clip0_437_121)">
<g filter="url(#filter0_i_437_121)">
<path d="M44.1867 4.31446C40.5052 2.74086 39.8911 2.72696 35.5628 2.12557C28.8365 1.191 23.4867 1.28081 17.5554 3.16147C13.0193 4.59974 10.6781 5.90283 7.49111 8.84173C5.51895 10.6604 4.83274 11.9702 3.63864 14.1815C1.50768 18.1276 0.891162 24.9837 0.891162 24.9837C0.891162 24.9837 3.80134 18.7714 7.32009 15.7549C10.7303 12.8314 13.2172 11.3022 18.0013 10.0899C21.7008 9.15246 24.0297 9.2253 27.9167 9.34687L27.9406 9.34762C31.6021 9.46214 37.2114 10.5652 37.2114 10.5652C37.2114 10.5652 44.0186 11.2274 45.9379 8.80442C47.1232 7.30811 47.8683 5.88807 44.1867 4.31446Z" fill="#555457"/>
</g>
</g>
<defs>
<filter id="filter0_i_437_121" x="0.890625" y="0.0449219" width="47.5176" height="24.9385" filterUnits="userSpaceOnUse" color-interpolation-filters="sRGB">
<feFlood flood-opacity="0" result="BackgroundImageFix"/>
<feBlend mode="normal" in="SourceGraphic" in2="BackgroundImageFix" result="shape"/>
<feColorMatrix in="SourceAlpha" type="matrix" values="0 0 0 0 0 0 0 0 0 0 0 0 0 0 0 0 0 0 127 0" result="hardAlpha"/>
<feOffset dx="2" dy="-7"/>
<feGaussianBlur stdDeviation="0.75"/>
<feComposite in2="hardAlpha" operator="arithmetic" k2="-1" k3="1"/>
<feColorMatrix type="matrix" values="0 0 0 0 0 0 0 0 0 0 0 0 0 0 0 0 0 0 0.76 0"/>
<feBlend mode="normal" in2="shape" result="effect1_innerShadow_437_121"/>
</filter>
<clipPath id="clip0_437_121">
<rect width="48" height="26" fill="white"/>
</clipPath>
</defs>
</svg>
