<svg width="160" height="118" viewBox="0 0 160 118" fill="none" xmlns="http://www.w3.org/2000/svg">
<g filter="url(#filter0_f_437_124)">
<path d="M114.263 21.832C117.933 22.3199 121.81 22.9935 124.702 24.1417C127.741 25.3483 129.556 27.0261 129.241 29.3016C129.074 30.5081 128.767 31.61 128.314 32.6436C129.266 32.9063 129.981 33.1956 131.494 33.7822C135.4 35.2955 137.946 36.6996 139.572 38.6844C140.815 40.2024 141.079 41.1209 140.656 42.6511C140.393 43.598 139.847 44.0903 138.942 44.9305C137.332 46.425 133.046 48.2256 133.017 48.2379C133.037 48.2216 135.777 45.9862 136.09 44.3576C136.394 42.7734 136.211 41.7629 134.696 40.2352C133.524 39.0538 132.34 38.4695 130.364 37.4944L130.352 37.4885C129.216 36.9276 127.477 36.2677 126.296 35.8388C126.021 36.1663 125.728 36.4902 125.415 36.8122C123.873 38.3958 121.894 39.8969 119.566 41.4905C124.653 43.4326 126.413 46.4572 123.4 49.1997C119.816 52.4611 110.703 54.2118 102.091 53.4728C101.704 53.7511 101.306 54.0379 100.894 54.3346C94.3287 59.0598 91.0713 61.6568 85.5454 66.5829C83.4587 68.4432 82.6253 69.7543 81.371 71.363C80.0998 72.9932 78.5228 74.7328 75.0501 77.1487C70.9455 80.0042 65.1233 81.9001 57.4881 82.0209C53.2038 82.0886 49.5324 81.524 46.8311 80.4195C44.165 79.3293 42.6359 77.7944 42.1558 76.0499C40.8264 71.2186 45.9012 67.8888 50.9989 63.9232C58.444 58.1315 63.2511 54.9197 70.9115 49.2914C72.0722 48.4387 74.5358 48.0652 76.4142 48.4572C78.2928 48.8494 78.8745 49.8588 77.7139 50.7116C69.8651 56.4784 65.2999 59.5125 57.9122 65.2595C52.4379 69.518 49.1302 71.7281 50.1002 75.2536C50.4277 76.444 51.4147 77.2972 52.7296 77.8349C54.0095 78.3583 55.7855 78.6616 58.1705 78.6239C62.1871 78.5603 65.4503 77.6724 68.3623 75.6466C71.3748 73.5508 72.6881 72.0966 73.8071 70.6615C74.9429 69.2049 76.0006 67.5785 78.4004 65.4392C84.0439 60.4082 87.4297 57.7085 94.1328 52.8838C94.4484 52.6567 94.756 52.4352 95.0568 52.2188C88.6539 50.3429 86.1388 46.9608 89.4751 43.9245C93.3693 40.3806 103.792 38.62 113.006 39.8997C115.149 38.4287 116.806 37.1574 118.075 35.8538C119.82 34.0606 120.895 32.1395 121.258 29.5181C121.437 28.2233 120.488 27.3955 118.874 26.7547C117.113 26.0556 114.448 25.5399 111.054 25.0887C108.832 24.7934 106.654 24.7201 104.469 24.8538C104.251 24.8786 104.021 24.8939 103.783 24.9027C98.296 25.3466 92.7377 27.0853 86.3239 29.8846C90.2745 31.8145 91.421 34.5065 88.7134 36.9707C85.017 40.3347 75.438 42.0916 66.5941 41.1669C61.1698 45.3471 56.8366 49.8355 50.7214 55.45C39.895 65.39 33.6757 70.9754 29.7797 81.3049C27.8711 86.3653 26.1643 89.1475 30.2638 92.4095C32.2899 94.0216 34.2547 95.161 36.5597 95.9167C38.783 96.6455 41.5061 97.0773 45.3664 97.1219C48.863 97.1622 51.6811 96.9777 54.2173 96.5427C56.739 96.1101 59.2611 95.3819 62.0441 94.1665C68.0292 91.5525 69.2039 89.8244 73.6144 85.8104C76.8201 82.8929 78.0571 80.9843 80.0737 78.7079C82.0854 76.4371 84.6319 74.1316 90.1031 70.8845C96.7003 66.9692 97.1653 66.5785 104.026 63.183C105.549 62.4293 108.08 62.272 109.679 62.8314C111.278 63.3908 111.34 64.4553 109.818 65.209C103.26 68.4545 103.011 68.7137 96.4113 72.6304C91.4599 75.5689 89.2794 77.5656 87.5197 79.552C85.765 81.5328 84.1851 83.8372 80.7908 86.9263C76.7214 90.6298 74.8233 93.1517 67.4334 96.3792C63.9361 97.9067 60.3517 98.9971 56.3992 99.6752C52.4609 100.351 48.4352 100.569 44.1771 100.52C38.8835 100.459 34.6818 99.8403 31.2097 98.702C27.8194 97.5905 25.3177 96.0456 23.1046 94.2847C17.6059 89.9094 20.1347 85.8183 21.8863 81.1742C25.9871 70.3018 32.6877 64.303 43.5325 54.3462C49.4862 48.8799 53.9416 44.2409 59.731 39.7937C53.8031 37.8846 51.5657 34.6287 54.7887 31.6955C58.7743 28.0684 69.5996 26.3088 78.9676 27.7655C79.3986 27.8325 79.819 27.9053 80.2285 27.9833C84.3932 26.136 88.8165 24.4287 93.5366 23.2133C92.8628 23.0674 92.1882 22.9311 91.5704 22.8248L91.5526 22.822C88.7005 22.3311 86.9916 22.0369 83.8912 21.9207C79.882 21.7706 77.4682 21.9922 73.8558 22.5717C70.1285 23.1698 65.6842 24.904 65.6842 24.904C65.6842 24.904 68.6551 22.6895 71.6887 21.6207C73.3887 21.0217 74.3806 20.6645 76.5165 20.2867C79.9681 19.6762 82.19 19.5129 86.097 19.559C91.206 19.6192 95.226 20.2091 99.896 21.3001C100.598 21.4641 101.16 21.5941 101.638 21.7088C105.642 21.2621 109.844 21.2446 114.263 21.832Z" fill="#58544D" fill-opacity="0.64"/>
</g>
<defs>
<filter id="filter0_f_437_124" x="7.05586" y="6.85176" width="146.488" height="106.375" filterUnits="userSpaceOnUse" color-interpolation-filters="sRGB">
<feFlood flood-opacity="0" result="BackgroundImageFix"/>
<feBlend mode="normal" in="SourceGraphic" in2="BackgroundImageFix" result="shape"/>
<feGaussianBlur stdDeviation="6.35" result="effect1_foregroundBlur_437_124"/>
</filter>
</defs>
</svg>
