<svg width="36" height="40" viewBox="0 0 36 40" fill="none" xmlns="http://www.w3.org/2000/svg">
<g clip-path="url(#clip0_437_122)">
<g filter="url(#filter0_i_437_122)">
<path d="M5.47214 2.17763C9.23029 2.49002 9.74758 2.74903 13.6157 4.15576C19.6269 6.34183 24.0407 8.77408 28.1495 12.9534C31.2918 16.1496 32.6665 18.266 34.0245 22.1169C34.8648 24.4999 34.8588 25.8927 34.8784 28.2597C34.9134 32.4837 32.4054 38.4627 32.4054 38.4627C32.4054 38.4627 32.7203 32.0088 31.1204 27.9471C29.5699 24.0107 28.1735 21.6418 24.7252 18.5245C22.0586 16.1138 20.0879 15.1482 16.7986 13.5366L16.7783 13.5266C13.6799 12.0085 8.52427 10.4548 8.52427 10.4548C8.52427 10.4548 2.56577 8.00642 2.03578 5.14361C1.70848 3.37569 1.71398 1.86523 5.47214 2.17763Z" fill="#555457"/>
</g>
</g>
<defs>
<filter id="filter0_i_437_122" x="0.904297" y="0.636719" width="33.9746" height="37.8262" filterUnits="userSpaceOnUse" color-interpolation-filters="sRGB">
<feFlood flood-opacity="0" result="BackgroundImageFix"/>
<feBlend mode="normal" in="SourceGraphic" in2="BackgroundImageFix" result="shape"/>
<feColorMatrix in="SourceAlpha" type="matrix" values="0 0 0 0 0 0 0 0 0 0 0 0 0 0 0 0 0 0 127 0" result="hardAlpha"/>
<feOffset dx="-1" dy="-7"/>
<feGaussianBlur stdDeviation="0.75"/>
<feComposite in2="hardAlpha" operator="arithmetic" k2="-1" k3="1"/>
<feColorMatrix type="matrix" values="0 0 0 0 0 0 0 0 0 0 0 0 0 0 0 0 0 0 0.76 0"/>
<feBlend mode="normal" in2="shape" result="effect1_innerShadow_437_122"/>
</filter>
<clipPath id="clip0_437_122">
<rect width="36" height="40" fill="white"/>
</clipPath>
</defs>
</svg>
