<svg width="77" height="71" viewBox="0 0 77 71" fill="none" xmlns="http://www.w3.org/2000/svg">
<path d="M42.624 1.59668L45.6631 4.25586L34.1826 20.5205L34.1367 20.5859L34.1006 20.6592L25.1006 39.1592L24.5469 40.2979L25.7832 40.5732L34.6533 42.5439L43.5 47.2002V48.7939L36.9082 58.6816L34.7256 59.0449L29.0547 55.2646L28.9355 55.1855L28.7979 55.1426L20.7979 52.6426L19.8467 52.3447L19.5469 53.2959L16.5713 62.7158L13.4033 69.0518L1.47461 68.1992L16.4121 33.5059L29.3301 6.17969L31.0391 4.47168L39.6641 1.59668H42.624ZM56.4746 1.32129C57.4601 1.01398 58.3591 0.915092 59.1113 1.07715C59.8035 1.2263 60.69 1.65797 61.4619 2.10352C61.7872 2.29129 62.0744 2.47219 62.2949 2.61523C62.2882 2.74532 62.2809 2.89601 62.2715 3.06445C62.2363 3.69541 62.1822 4.57686 62.1045 5.57715C61.9482 7.58842 61.7011 10.0411 61.3398 11.9092C60.7486 14.966 59.403 18.7693 58.1846 21.8457C57.5787 23.3755 57.0105 24.7108 56.5938 25.6631C56.3855 26.1388 56.2155 26.5191 56.0977 26.7793C56.07 26.8404 56.0442 26.8948 56.0225 26.9424L39.9844 38.5264L40.8154 27.7256C40.8186 27.7093 40.8227 27.6898 40.8271 27.667C40.8426 27.5877 40.8665 27.4693 40.8975 27.3164C40.9594 27.0106 41.0519 26.5654 41.1738 26.0117C41.4179 24.9037 41.7789 23.3636 42.2461 21.6367C43.1869 18.1592 44.5353 14.0114 46.1914 11.0928C46.9244 9.80094 48.0226 8.21349 48.9531 6.92969C49.4152 6.29215 49.8303 5.73708 50.1299 5.3418C50.2796 5.14428 50.4004 4.98664 50.4834 4.87891C50.5087 4.84607 50.5298 4.81725 50.5479 4.79395C50.5851 4.76253 50.6371 4.71928 50.7021 4.66602C50.8533 4.54222 51.0764 4.36422 51.3564 4.15234C51.9183 3.72729 52.7037 3.17143 53.6025 2.64355C54.505 2.11351 55.4973 1.62611 56.4746 1.32129ZM71.9521 10.0986C72.2707 10.1138 72.6639 10.2411 73.1123 10.4873C73.553 10.7293 73.992 11.0552 74.3906 11.3965C74.7868 11.7357 75.1255 12.0751 75.3652 12.3301C75.4381 12.4076 75.5003 12.4777 75.5527 12.5361C75.5646 12.6213 75.5799 12.7243 75.5947 12.8428C75.641 13.2137 75.6964 13.7316 75.7334 14.3154C75.8093 15.5151 75.7972 16.8747 75.5352 17.8359C75.3394 18.5537 74.8908 19.465 74.4551 20.2422C74.2431 20.6204 74.0449 20.9491 73.8994 21.1826C73.8434 21.2726 73.7943 21.3477 73.7568 21.4062L68.0381 25.6963L60.4883 28.0801L62.4209 21.5098L67.8066 12.6982C67.8199 12.6837 67.8357 12.6666 67.8535 12.6475C67.925 12.5708 68.0316 12.459 68.167 12.3242C68.4394 12.0531 68.8226 11.6956 69.2676 11.3438C69.7158 10.9894 70.206 10.6573 70.6924 10.4238C71.1861 10.1869 71.6113 10.0825 71.9521 10.0986Z" fill="white" stroke="black" stroke-width="2"/>
</svg>
