<svg width="109" height="137" viewBox="0 0 109 137" fill="none" xmlns="http://www.w3.org/2000/svg">
<path d="M35.8124 54.3566L64.4527 2.37342L65.9382 1.16797L84.0261 9.48415L60.181 54.7019L54.7085 67.7654L77.4692 78.8595L77.7708 80.2571L68.5418 98.8325L66.7547 98.6403L62.0819 95.8624L44.4038 92.141L22.141 135.254L1.78209 131.244L1.08203 129.348L35.8124 54.3566Z" fill="white"/>
<path d="M73.0022 40.2946L92.2156 2.79402L104.945 3.66745L106.855 6.20281L84.1169 39.4012L74.4242 43.4267L73.0022 40.2946Z" fill="white"/>
<path d="M82.095 49.3098L75.695 57.8813L82.095 60.7384L106.415 51.5956L107.695 48.167L105.775 36.7384H100.015L82.095 49.3098Z" fill="white"/>
<path d="M35.8124 54.3566L64.4527 2.37342L65.9382 1.16797L84.0261 9.48415L60.181 54.7019L54.7085 67.7654L77.4692 78.8595L77.7708 80.2571L68.5418 98.8325L66.7547 98.6403L62.0819 95.8624L44.4038 92.141L22.141 135.254L1.78209 131.244L1.08203 129.348L35.8124 54.3566Z" stroke="black" stroke-width="2"/>
<path d="M73.0022 40.2946L92.2156 2.79402L104.945 3.66745L106.855 6.20281L84.1169 39.4012L74.4242 43.4267L73.0022 40.2946Z" stroke="black" stroke-width="2"/>
<path d="M82.095 49.3098L75.695 57.8813L82.095 60.7384L106.415 51.5956L107.695 48.167L105.775 36.7384H100.015L82.095 49.3098Z" stroke="black" stroke-width="2"/>
</svg>
