<svg width="76" height="96" viewBox="0 0 76 96" fill="none" xmlns="http://www.w3.org/2000/svg">
<path d="M62.582 4.40918L31.6445 55.4814L31.0703 56.4297L32.0723 56.9033L50.1895 65.4844L42.9434 81.7881L23.7871 76.042L22.9326 75.7861L22.5811 76.6064L15.2803 93.6387L9.76172 94.9131L1 87.5342V83.2256L22.376 38.4854L41.2666 8.65723L48.9307 1.95117L55.8271 1.03125L62.582 4.40918ZM71.7598 42.1631L72.043 43.2959L66.4951 51.1553L62.3086 52.5518L62.2266 52.5781L62.1514 52.6191L57.9814 54.8633L62.0156 43.9717L64.2148 40.8936L67.9717 40.0586L71.7598 42.1631ZM74.458 11.3887L61.6807 40.873L59.3965 42.7002L45.0898 52.6719L47.9414 40.8574L58.3857 20.9648L58.4141 20.9092L58.4365 20.8516L59.9365 16.8516L59.9482 16.8164L60.8662 14.0605L66.9424 8.45215L73.7012 7.60742L74.458 11.3887Z" fill="white" stroke="black" stroke-width="2"/>
</svg>
