<svg width="83" height="62" viewBox="0 0 83 62" fill="none" xmlns="http://www.w3.org/2000/svg">
<path d="M31.9873 2.07812C34.0695 1.40265 36.5218 0.838729 38.3926 1.04102C40.1009 1.22574 42.2068 2.14471 43.9619 3.08398C44.8226 3.54459 45.5692 3.99361 46.0996 4.32715C46.1117 4.33477 46.1239 4.34212 46.1357 4.34961L31.1504 28.5205L30.5469 29.4932L31.5918 29.96L50 38.1943V38.7656L43.5352 49.3867L23.7588 44.0811L23.0166 43.8818L22.6338 44.5479L13.4219 60.5469H1.80273L1.27832 60.1973L28.7412 3.31055C28.9116 3.23578 29.1459 3.13491 29.4316 3.01758C30.0714 2.75489 30.9668 2.4092 31.9873 2.07812ZM66.5273 6.9873L49.7588 33.0713C49.508 32.8747 49.2148 32.6479 48.8936 32.4072C47.9003 31.663 46.5953 30.7454 45.459 30.1582C44.3694 29.5952 42.931 29.0749 41.8008 28.7031C41.4955 28.6027 41.2085 28.5129 40.9521 28.4336L54.9482 1.84082L66.5273 6.9873ZM74.2441 7.70801C74.6077 7.85153 75.1107 8.05971 75.665 8.31836C76.8033 8.84945 78.0507 9.5437 78.8086 10.2695C79.7004 11.1237 80.5113 12.5941 81.1182 13.9521C81.4137 14.6136 81.6471 15.217 81.8066 15.6543C81.8423 15.7522 81.8724 15.8422 81.9004 15.9219L73.4434 29.5469H72.0059L59.2305 29.1055L71.667 8.37793L73.9805 7.60645C74.0564 7.63537 74.1454 7.66902 74.2441 7.70801Z" fill="white" stroke="black" stroke-width="2"/>
</svg>
